<svg width="24" height="24" viewBox="0 0 24 24" fill="none" xmlns="http://www.w3.org/2000/svg">
<g clip-path="url(#clip0_1_17144)">
<path d="M11.7308 15C13.3239 15 14.6154 13.6569 14.6154 12C14.6154 10.3431 13.3239 9 11.7308 9C10.1377 9 8.84619 10.3431 8.84619 12C8.84619 13.6569 10.1377 15 11.7308 15Z" stroke="black" stroke-width="2" stroke-linecap="round" stroke-linejoin="round"/>
<path d="M18.8462 15C18.7182 15.3016 18.68 15.6362 18.7366 15.9606C18.7931 16.285 18.9418 16.5843 19.1635 16.82L19.2212 16.88C19.4 17.0657 19.5418 17.2863 19.6386 17.5291C19.7354 17.7719 19.7852 18.0322 19.7852 18.295C19.7852 18.5578 19.7354 18.8181 19.6386 19.0609C19.5418 19.3037 19.4 19.5243 19.2212 19.71C19.0426 19.896 18.8305 20.0435 18.597 20.1441C18.3636 20.2448 18.1133 20.2966 17.8606 20.2966C17.6079 20.2966 17.3576 20.2448 17.1242 20.1441C16.8907 20.0435 16.6786 19.896 16.5 19.71L16.4423 19.65C16.2157 19.4195 15.9279 19.2648 15.616 19.206C15.3041 19.1472 14.9823 19.1869 14.6923 19.32C14.4079 19.4468 14.1654 19.6572 13.9946 19.9255C13.8237 20.1938 13.732 20.5082 13.7308 20.83V21C13.7308 21.5304 13.5282 22.0391 13.1675 22.4142C12.8069 22.7893 12.3177 23 11.8077 23C11.2977 23 10.8085 22.7893 10.4479 22.4142C10.0872 22.0391 9.88464 21.5304 9.88464 21V20.91C9.87719 20.579 9.77418 20.258 9.58898 19.9887C9.40378 19.7194 9.14496 19.5143 8.84618 19.4C8.55616 19.2669 8.23445 19.2272 7.92253 19.286C7.61062 19.3448 7.32279 19.4995 7.09618 19.73L7.03849 19.79C6.85988 19.976 6.64779 20.1235 6.41433 20.2241C6.18087 20.3248 5.93063 20.3766 5.67791 20.3766C5.42519 20.3766 5.17494 20.3248 4.94148 20.2241C4.70803 20.1235 4.49593 19.976 4.31733 19.79C4.13853 19.6043 3.99669 19.3837 3.89991 19.1409C3.80313 18.8981 3.75332 18.6378 3.75332 18.375C3.75332 18.1122 3.80313 17.8519 3.89991 17.6091C3.99669 17.3663 4.13853 17.1457 4.31733 16.96L4.37502 16.9C4.59669 16.6643 4.74539 16.365 4.80195 16.0406C4.85851 15.7162 4.82033 15.3816 4.69233 15.08C4.57044 14.7842 4.36806 14.532 4.11009 14.3543C3.85212 14.1766 3.54982 14.0813 3.24041 14.08H3.07695C2.56691 14.08 2.07777 13.8693 1.71713 13.4942C1.35648 13.1191 1.15387 12.6104 1.15387 12.08C1.15387 11.5496 1.35648 11.0409 1.71713 10.6658C2.07777 10.2907 2.56691 10.08 3.07695 10.08H3.16348C3.48175 10.0723 3.79041 9.96512 4.04935 9.77251C4.30829 9.5799 4.50552 9.31074 4.61541 9C4.7434 8.69838 4.78158 8.36381 4.72503 8.03941C4.66847 7.71502 4.51977 7.41568 4.2981 7.18L4.24041 7.12C4.06161 6.93425 3.91976 6.71368 3.82299 6.47088C3.72621 6.22808 3.6764 5.96783 3.6764 5.705C3.6764 5.44217 3.72621 5.18192 3.82299 4.93912C3.91976 4.69632 4.06161 4.47575 4.24041 4.29C4.41901 4.10405 4.6311 3.95653 4.86456 3.85588C5.09802 3.75523 5.34826 3.70343 5.60099 3.70343C5.85371 3.70343 6.10395 3.75523 6.33741 3.85588C6.57087 3.95653 6.78296 4.10405 6.96156 4.29L7.01925 4.35C7.24587 4.58054 7.53369 4.73519 7.84561 4.794C8.15753 4.85282 8.47924 4.81312 8.76925 4.68H8.84618C9.13057 4.55324 9.37312 4.34276 9.54396 4.07447C9.7148 3.80618 9.80648 3.49179 9.80772 3.17V3C9.80772 2.46957 10.0103 1.96086 10.371 1.58579C10.7316 1.21071 11.2208 1 11.7308 1C12.2408 1 12.73 1.21071 13.0906 1.58579C13.4513 1.96086 13.6539 2.46957 13.6539 3V3.09C13.6551 3.41179 13.7468 3.72618 13.9176 3.99447C14.0885 4.26276 14.331 4.47324 14.6154 4.6C14.9054 4.73312 15.2271 4.77282 15.5391 4.714C15.851 4.65519 16.1388 4.50054 16.3654 4.27L16.4231 4.21C16.6017 4.02405 16.8138 3.87653 17.0473 3.77588C17.2807 3.67523 17.531 3.62343 17.7837 3.62343C18.0364 3.62343 18.2866 3.67523 18.5201 3.77588C18.7536 3.87653 18.9657 4.02405 19.1443 4.21C19.3231 4.39575 19.4649 4.61632 19.5617 4.85912C19.6585 5.10192 19.7083 5.36217 19.7083 5.625C19.7083 5.88783 19.6585 6.14808 19.5617 6.39088C19.4649 6.63368 19.3231 6.85425 19.1443 7.04L19.0866 7.1C18.8649 7.33568 18.7162 7.63502 18.6596 7.95941C18.6031 8.28381 18.6413 8.61838 18.7693 8.92V9C18.8911 9.29577 19.0935 9.54802 19.3515 9.72569C19.6095 9.90337 19.9118 9.99872 20.2212 10H20.3846C20.8947 10 21.3838 10.2107 21.7445 10.5858C22.1051 10.9609 22.3077 11.4696 22.3077 12C22.3077 12.5304 22.1051 13.0391 21.7445 13.4142C21.3838 13.7893 20.8947 14 20.3846 14H20.2981C19.9887 14.0013 19.6864 14.0966 19.4284 14.2743C19.1705 14.452 18.9681 14.7042 18.8462 15Z" stroke="black" stroke-width="2" stroke-linecap="round" stroke-linejoin="round"/>
</g>
<defs>
<clipPath id="clip0_1_17144">
<rect width="23.0769" height="24" fill="white" transform="translate(0.192322)"/>
</clipPath>
</defs>
</svg>
